<svg width="144" height="33" viewBox="0 0 144 33" fill="none" xmlns="http://www.w3.org/2000/svg">
<path d="M12 15.1667L16 19.1667L29.3333 5.83334" stroke="#2DD4BF" stroke-width="2" stroke-linecap="round" stroke-linejoin="round"/>
<path d="M28 16.5V25.8333C28 26.5406 27.719 27.2189 27.219 27.719C26.7189 28.219 26.0406 28.5 25.3333 28.5H6.66667C5.95942 28.5 5.28115 28.219 4.78105 27.719C4.28095 27.2189 4 26.5406 4 25.8333V7.16667C4 6.45942 4.28095 5.78115 4.78105 5.28105C5.28115 4.78095 5.95942 4.5 6.66667 4.5H21.3333" stroke="#2DD4BF" stroke-width="2" stroke-linecap="round" stroke-linejoin="round"/>
<path d="M48.1914 26H45.3672V11.2578H40.3516V8.86719H53.1953V11.2578H48.1914V26ZM67.0234 19.4844C67.0234 20.5625 66.8828 21.5195 66.6016 22.3555C66.3203 23.1914 65.9102 23.8984 65.3711 24.4766C64.832 25.0469 64.1836 25.4844 63.4258 25.7891C62.668 26.0859 61.8125 26.2344 60.8594 26.2344C59.9688 26.2344 59.1523 26.0859 58.4102 25.7891C57.668 25.4844 57.0234 25.0469 56.4766 24.4766C55.9375 23.8984 55.5195 23.1914 55.2227 22.3555C54.9258 21.5195 54.7773 20.5625 54.7773 19.4844C54.7773 18.0547 55.0234 16.8438 55.5156 15.8516C56.0156 14.8516 56.7266 14.0898 57.6484 13.5664C58.5703 13.043 59.668 12.7812 60.9414 12.7812C62.1367 12.7812 63.1914 13.043 64.1055 13.5664C65.0195 14.0898 65.7344 14.8516 66.25 15.8516C66.7656 16.8516 67.0234 18.0625 67.0234 19.4844ZM57.6133 19.4844C57.6133 20.4297 57.7266 21.2383 57.9531 21.9102C58.1875 22.582 58.5469 23.0977 59.0312 23.457C59.5156 23.8086 60.1406 23.9844 60.9062 23.9844C61.6719 23.9844 62.2969 23.8086 62.7812 23.457C63.2656 23.0977 63.6211 22.582 63.8477 21.9102C64.0742 21.2383 64.1875 20.4297 64.1875 19.4844C64.1875 18.5391 64.0742 17.7383 63.8477 17.082C63.6211 16.418 63.2656 15.9141 62.7812 15.5703C62.2969 15.2188 61.668 15.043 60.8945 15.043C59.7539 15.043 58.9219 15.4258 58.3984 16.1914C57.875 16.957 57.6133 18.0547 57.6133 19.4844ZM74.5469 26.2344C73 26.2344 71.7578 25.6719 70.8203 24.5469C69.8906 23.4141 69.4258 21.7461 69.4258 19.543C69.4258 17.3164 69.8984 15.6328 70.8438 14.4922C71.7969 13.3516 73.0508 12.7812 74.6055 12.7812C75.2617 12.7812 75.8359 12.8711 76.3281 13.0508C76.8203 13.2227 77.2422 13.457 77.5938 13.7539C77.9531 14.0508 78.2578 14.3828 78.5078 14.75H78.6367C78.5977 14.5078 78.5508 14.1602 78.4961 13.707C78.4492 13.2461 78.4258 12.8203 78.4258 12.4297V7.76562H81.1914V26H79.0352L78.543 24.2305H78.4258C78.1914 24.6055 77.8945 24.9453 77.5352 25.25C77.1836 25.5469 76.7617 25.7852 76.2695 25.9648C75.7852 26.1445 75.2109 26.2344 74.5469 26.2344ZM75.3203 23.9961C76.5 23.9961 77.332 23.6562 77.8164 22.9766C78.3008 22.2969 78.5508 21.2773 78.5664 19.918V19.5547C78.5664 18.1016 78.332 16.9883 77.8633 16.2148C77.3945 15.4336 76.5391 15.043 75.2969 15.043C74.3047 15.043 73.5469 15.4453 73.0234 16.25C72.5078 17.0469 72.25 18.1602 72.25 19.5898C72.25 21.0195 72.5078 22.1133 73.0234 22.8711C73.5469 23.6211 74.3125 23.9961 75.3203 23.9961ZM96.625 19.4844C96.625 20.5625 96.4844 21.5195 96.2031 22.3555C95.9219 23.1914 95.5117 23.8984 94.9727 24.4766C94.4336 25.0469 93.7852 25.4844 93.0273 25.7891C92.2695 26.0859 91.4141 26.2344 90.4609 26.2344C89.5703 26.2344 88.7539 26.0859 88.0117 25.7891C87.2695 25.4844 86.625 25.0469 86.0781 24.4766C85.5391 23.8984 85.1211 23.1914 84.8242 22.3555C84.5273 21.5195 84.3789 20.5625 84.3789 19.4844C84.3789 18.0547 84.625 16.8438 85.1172 15.8516C85.6172 14.8516 86.3281 14.0898 87.25 13.5664C88.1719 13.043 89.2695 12.7812 90.543 12.7812C91.7383 12.7812 92.793 13.043 93.707 13.5664C94.6211 14.0898 95.3359 14.8516 95.8516 15.8516C96.3672 16.8516 96.625 18.0625 96.625 19.4844ZM87.2148 19.4844C87.2148 20.4297 87.3281 21.2383 87.5547 21.9102C87.7891 22.582 88.1484 23.0977 88.6328 23.457C89.1172 23.8086 89.7422 23.9844 90.5078 23.9844C91.2734 23.9844 91.8984 23.8086 92.3828 23.457C92.8672 23.0977 93.2227 22.582 93.4492 21.9102C93.6758 21.2383 93.7891 20.4297 93.7891 19.4844C93.7891 18.5391 93.6758 17.7383 93.4492 17.082C93.2227 16.418 92.8672 15.9141 92.3828 15.5703C91.8984 15.2188 91.2695 15.043 90.4961 15.043C89.3555 15.043 88.5234 15.4258 88 16.1914C87.4766 16.957 87.2148 18.0547 87.2148 19.4844ZM110.688 26L109.012 21.2422H102.461L100.785 26H97.8203L104.195 8.79688H107.312L113.676 26H110.688ZM108.285 18.8281L106.656 14.1406C106.594 13.9375 106.504 13.6523 106.387 13.2852C106.27 12.9102 106.152 12.5312 106.035 12.1484C105.918 11.7578 105.82 11.4297 105.742 11.1641C105.664 11.4844 105.566 11.8438 105.449 12.2422C105.34 12.6328 105.23 13 105.121 13.3438C105.02 13.6875 104.941 13.9531 104.887 14.1406L103.246 18.8281H108.285ZM122.312 12.7812C123.852 12.7812 125.086 13.3438 126.016 14.4688C126.953 15.5938 127.422 17.2656 127.422 19.4844C127.422 20.9531 127.203 22.1914 126.766 23.1992C126.336 24.1992 125.73 24.957 124.949 25.4727C124.176 25.9805 123.273 26.2344 122.242 26.2344C121.586 26.2344 121.016 26.1484 120.531 25.9766C120.047 25.8047 119.633 25.582 119.289 25.3086C118.945 25.0273 118.656 24.7227 118.422 24.3945H118.258C118.297 24.707 118.332 25.0547 118.363 25.4375C118.402 25.8125 118.422 26.1562 118.422 26.4688V31.7539H115.656V13.0273H117.906L118.293 14.8203H118.422C118.664 14.4531 118.957 14.1133 119.301 13.8008C119.652 13.4883 120.074 13.2422 120.566 13.0625C121.066 12.875 121.648 12.7812 122.312 12.7812ZM121.574 15.0312C120.816 15.0312 120.207 15.1836 119.746 15.4883C119.293 15.7852 118.961 16.2344 118.75 16.8359C118.547 17.4375 118.438 18.1914 118.422 19.0977V19.4844C118.422 20.4453 118.52 21.2617 118.715 21.9336C118.918 22.5977 119.25 23.1055 119.711 23.457C120.18 23.8008 120.812 23.9727 121.609 23.9727C122.281 23.9727 122.836 23.7891 123.273 23.4219C123.719 23.0547 124.051 22.5312 124.27 21.8516C124.488 21.1719 124.598 20.3711 124.598 19.4492C124.598 18.0508 124.348 16.9648 123.848 16.1914C123.355 15.418 122.598 15.0312 121.574 15.0312ZM137.266 12.7812C138.805 12.7812 140.039 13.3438 140.969 14.4688C141.906 15.5938 142.375 17.2656 142.375 19.4844C142.375 20.9531 142.156 22.1914 141.719 23.1992C141.289 24.1992 140.684 24.957 139.902 25.4727C139.129 25.9805 138.227 26.2344 137.195 26.2344C136.539 26.2344 135.969 26.1484 135.484 25.9766C135 25.8047 134.586 25.582 134.242 25.3086C133.898 25.0273 133.609 24.7227 133.375 24.3945H133.211C133.25 24.707 133.285 25.0547 133.316 25.4375C133.355 25.8125 133.375 26.1562 133.375 26.4688V31.7539H130.609V13.0273H132.859L133.246 14.8203H133.375C133.617 14.4531 133.91 14.1133 134.254 13.8008C134.605 13.4883 135.027 13.2422 135.52 13.0625C136.02 12.875 136.602 12.7812 137.266 12.7812ZM136.527 15.0312C135.77 15.0312 135.16 15.1836 134.699 15.4883C134.246 15.7852 133.914 16.2344 133.703 16.8359C133.5 17.4375 133.391 18.1914 133.375 19.0977V19.4844C133.375 20.4453 133.473 21.2617 133.668 21.9336C133.871 22.5977 134.203 23.1055 134.664 23.457C135.133 23.8008 135.766 23.9727 136.562 23.9727C137.234 23.9727 137.789 23.7891 138.227 23.4219C138.672 23.0547 139.004 22.5312 139.223 21.8516C139.441 21.1719 139.551 20.3711 139.551 19.4492C139.551 18.0508 139.301 16.9648 138.801 16.1914C138.309 15.418 137.551 15.0312 136.527 15.0312Z" fill="#2DD4BF"/>
</svg>
